<?xml version="1.0" encoding="UTF-8" standalone="no"?>
<!DOCTYPE svg PUBLIC "-//W3C//DTD SVG 1.1//EN" "http://www.w3.org/Graphics/SVG/1.1/DTD/svg11.dtd">
<svg width="100%" height="100%" viewBox="0 0 562 168" version="1.1" xmlns="http://www.w3.org/2000/svg" xmlns:xlink="http://www.w3.org/1999/xlink" xml:space="preserve" xmlns:serif="http://www.serif.com/" style="fill-rule:evenodd;clip-rule:evenodd;stroke-linejoin:round;stroke-miterlimit:2;">
    <g transform="matrix(1,0,0,1,-116.107,-182.713)">
        <g transform="matrix(0.865283,0,0.14326,0.993376,-138.446,8.98653)">
            <path d="M530.281,299.747L408.727,175.02L462.495,175.935L585.45,299.916L530.281,299.747Z" style="fill:rgb(203,203,203);"/>
        </g>
        <g transform="matrix(1.12706,0,0,1.12706,-210.592,-31.1043)">
            <path d="M289.87,299.893L320.049,299.893L399.729,220.213L479.409,299.893L510.228,299.893L400.049,189.713L289.87,299.893Z" style="fill:rgb(203,203,203);"/>
        </g>
        <g transform="matrix(1,0,0,1,-160,7)">
            <path d="M290.943,343.669L321.066,343.669L321.066,299.078L399.856,220.289L479.509,299.942L510.175,299.942L399.966,189.734L290.955,298.745L290.943,343.669Z" style="fill:rgb(12,121,101);"/>
        </g>
        <g transform="matrix(0.639265,0,0,0.672214,123.166,132.99)">
            <path d="M200.152,191.16C200.152,191.16 196.909,186.267 186.024,186.267C175.138,186.267 171.565,194.184 169.751,199.461C169.638,199.79 198.448,199.461 198.448,199.461L196.414,208.972L168.596,208.972L168.706,214.415L195.26,214.415L193.335,223.816L169.916,223.871C169.916,223.871 172.884,237.395 186.353,237.395C199.822,237.395 202.269,231.43 203.231,230.468C203.368,230.33 203.176,248.005 203.176,248.005C203.176,248.005 198.613,251.908 185.529,251.908C172.445,251.908 156.447,243.985 152.543,223.919C152.511,223.75 144.627,223.919 144.627,223.919L146.606,214.518L151.444,214.463L151.444,208.856L144.572,208.856L146.496,199.62L152.653,199.62C152.653,199.62 154.303,186.719 167.002,177.538C179.701,168.357 201.011,172.624 203.616,175.229C203.633,175.246 200.152,191.16 200.152,191.16Z" style="fill:rgb(12,121,101);"/>
        </g>
        <g transform="matrix(6.46498,0,0,6.46498,-1927.85,-2002)">
            <g transform="matrix(6.996,0,0,6.996,323.608,363.222)">
                <rect x="0.09" y="-0.68" width="0.096" height="0.68" style="fill:rgb(144,144,144);fill-rule:nonzero;"/>
            </g>
            <g transform="matrix(6.996,0,0,6.996,325.539,363.222)">
                <path d="M0.186,0L0.186,-0.507L0.539,0L0.625,0L0.625,-0.68L0.528,-0.68L0.528,-0.177L0.175,-0.68L0.09,-0.68L0.09,0L0.186,0Z" style="fill:rgb(144,144,144);fill-rule:nonzero;"/>
            </g>
            <g transform="matrix(6.996,0,0,6.996,330.541,363.222)">
                <path d="M0.105,-0.688L0.01,-0.674L0.272,0L0.359,0L0.615,-0.68L0.521,-0.68L0.317,-0.129L0.105,-0.688Z" style="fill:rgb(144,144,144);fill-rule:nonzero;"/>
            </g>
            <g transform="matrix(6.996,0,0,6.996,334.913,363.222)">
                <path d="M0.522,0L0.509,-0.075L0.186,-0.075L0.186,-0.309L0.43,-0.309L0.417,-0.383L0.186,-0.383L0.186,-0.606L0.486,-0.606L0.473,-0.68L0.09,-0.68L0.09,0L0.522,0Z" style="fill:rgb(144,144,144);fill-rule:nonzero;"/>
            </g>
            <g transform="matrix(6.996,0,0,6.996,338.705,363.222)">
                <path d="M0.052,-0.037C0.065,-0.025 0.093,-0.014 0.136,-0.003C0.178,0.008 0.214,0.013 0.243,0.013C0.294,0.013 0.338,0.005 0.375,-0.01C0.412,-0.025 0.44,-0.047 0.459,-0.075C0.478,-0.102 0.488,-0.134 0.488,-0.17C0.488,-0.217 0.474,-0.255 0.446,-0.284C0.417,-0.313 0.373,-0.342 0.312,-0.369C0.267,-0.39 0.232,-0.407 0.209,-0.42C0.186,-0.433 0.168,-0.448 0.155,-0.465C0.142,-0.481 0.136,-0.5 0.136,-0.522C0.136,-0.551 0.148,-0.573 0.173,-0.588C0.198,-0.603 0.23,-0.611 0.27,-0.611C0.299,-0.611 0.324,-0.608 0.344,-0.602C0.366,-0.595 0.388,-0.586 0.411,-0.575L0.443,-0.651C0.418,-0.664 0.389,-0.674 0.358,-0.683C0.326,-0.692 0.294,-0.696 0.263,-0.696C0.218,-0.696 0.178,-0.688 0.145,-0.673C0.111,-0.658 0.085,-0.637 0.067,-0.61C0.049,-0.583 0.04,-0.553 0.04,-0.52C0.04,-0.487 0.046,-0.458 0.059,-0.435C0.072,-0.411 0.091,-0.39 0.116,-0.373C0.141,-0.355 0.174,-0.337 0.216,-0.318C0.259,-0.299 0.292,-0.283 0.316,-0.27C0.34,-0.256 0.359,-0.241 0.372,-0.225C0.385,-0.208 0.391,-0.189 0.391,-0.168C0.391,-0.138 0.378,-0.114 0.352,-0.097C0.326,-0.079 0.289,-0.07 0.242,-0.07C0.214,-0.07 0.184,-0.074 0.153,-0.083C0.122,-0.092 0.095,-0.102 0.074,-0.113L0.052,-0.037Z" style="fill:rgb(144,144,144);fill-rule:nonzero;"/>
            </g>
            <g transform="matrix(6.996,0,0,6.996,342.329,363.222)">
                <path d="M0.549,-0.68L0.01,-0.68L0.01,-0.604L0.231,-0.604L0.231,0L0.328,0L0.328,-0.604L0.562,-0.604L0.549,-0.68Z" style="fill:rgb(144,144,144);fill-rule:nonzero;"/>
            </g>
            <g transform="matrix(6.996,0,0,6.996,346.331,363.222)">
                <path d="M0.409,-0.223L0.578,-0.472L0.578,0L0.675,0L0.675,-0.68L0.615,-0.68L0.388,-0.344L0.149,-0.68L0.09,-0.68L0.09,0L0.186,0L0.186,-0.481L0.374,-0.218L0.409,-0.223Z" style="fill:rgb(144,144,144);fill-rule:nonzero;"/>
            </g>
            <g transform="matrix(6.996,0,0,6.996,351.683,363.222)">
                <path d="M0.522,0L0.509,-0.075L0.186,-0.075L0.186,-0.309L0.43,-0.309L0.417,-0.383L0.186,-0.383L0.186,-0.606L0.486,-0.606L0.473,-0.68L0.09,-0.68L0.09,0L0.522,0Z" style="fill:rgb(144,144,144);fill-rule:nonzero;"/>
            </g>
            <g transform="matrix(6.996,0,0,6.996,355.475,363.222)">
                <path d="M0.186,0L0.186,-0.507L0.539,0L0.625,0L0.625,-0.68L0.528,-0.68L0.528,-0.177L0.175,-0.68L0.09,-0.68L0.09,0L0.186,0Z" style="fill:rgb(144,144,144);fill-rule:nonzero;"/>
            </g>
            <g transform="matrix(6.996,0,0,6.996,360.477,363.222)">
                <path d="M0.549,-0.68L0.01,-0.68L0.01,-0.604L0.231,-0.604L0.231,0L0.328,0L0.328,-0.604L0.562,-0.604L0.549,-0.68Z" style="fill:rgb(144,144,144);fill-rule:nonzero;"/>
            </g>
            <g transform="matrix(6.996,0,0,6.996,366.088,363.222)">
                <path d="M0.285,-0.311L0.03,-0.311L0.039,-0.235L0.294,-0.235L0.285,-0.311Z" style="fill:rgb(144,144,144);fill-rule:nonzero;"/>
            </g>
            <g transform="matrix(6.996,0,0,6.996,369.963,363.222)">
                <rect x="0.09" y="-0.68" width="0.096" height="0.68" style="fill:rgb(144,144,144);fill-rule:nonzero;"/>
            </g>
            <g transform="matrix(6.996,0,0,6.996,371.894,363.222)">
                <path d="M0.409,-0.223L0.578,-0.472L0.578,0L0.675,0L0.675,-0.68L0.615,-0.68L0.388,-0.344L0.149,-0.68L0.09,-0.68L0.09,0L0.186,0L0.186,-0.481L0.374,-0.218L0.409,-0.223Z" style="fill:rgb(144,144,144);fill-rule:nonzero;"/>
            </g>
            <g transform="matrix(6.996,0,0,6.996,377.246,363.222)">
                <path d="M0.409,-0.223L0.578,-0.472L0.578,0L0.675,0L0.675,-0.68L0.615,-0.68L0.388,-0.344L0.149,-0.68L0.09,-0.68L0.09,0L0.186,0L0.186,-0.481L0.374,-0.218L0.409,-0.223Z" style="fill:rgb(144,144,144);fill-rule:nonzero;"/>
            </g>
            <g transform="matrix(6.996,0,0,6.996,382.598,363.222)">
                <path d="M0.365,-0.696C0.303,-0.695 0.247,-0.678 0.198,-0.647C0.149,-0.616 0.11,-0.573 0.082,-0.519C0.054,-0.465 0.04,-0.404 0.04,-0.337C0.04,-0.27 0.054,-0.209 0.082,-0.156C0.109,-0.103 0.148,-0.061 0.197,-0.031C0.246,-0.001 0.301,0.014 0.362,0.014C0.425,0.013 0.481,-0.003 0.531,-0.034C0.58,-0.065 0.619,-0.108 0.647,-0.162C0.675,-0.216 0.689,-0.277 0.689,-0.344C0.689,-0.411 0.675,-0.472 0.648,-0.525C0.62,-0.578 0.581,-0.62 0.532,-0.651C0.483,-0.681 0.427,-0.696 0.365,-0.696ZM0.14,-0.338C0.14,-0.391 0.15,-0.438 0.169,-0.48C0.188,-0.521 0.215,-0.554 0.25,-0.578C0.285,-0.601 0.324,-0.613 0.367,-0.613C0.409,-0.613 0.447,-0.602 0.48,-0.579C0.513,-0.556 0.54,-0.524 0.559,-0.483C0.578,-0.442 0.587,-0.395 0.587,-0.344C0.587,-0.291 0.577,-0.244 0.558,-0.202C0.539,-0.16 0.512,-0.127 0.477,-0.103C0.443,-0.08 0.404,-0.068 0.361,-0.068C0.319,-0.068 0.281,-0.08 0.248,-0.102C0.214,-0.126 0.188,-0.158 0.169,-0.199C0.15,-0.24 0.14,-0.287 0.14,-0.338Z" style="fill:rgb(144,144,144);fill-rule:nonzero;"/>
            </g>
            <g transform="matrix(6.996,0,0,6.996,387.698,363.222)">
                <path d="M0.325,0C0.4,0 0.461,-0.016 0.505,-0.049C0.551,-0.081 0.573,-0.129 0.573,-0.194C0.573,-0.236 0.562,-0.271 0.541,-0.3C0.519,-0.329 0.489,-0.35 0.451,-0.365C0.509,-0.402 0.538,-0.446 0.538,-0.496C0.538,-0.619 0.46,-0.68 0.304,-0.68L0.09,-0.68L0.09,0L0.325,0ZM0.296,-0.599C0.343,-0.599 0.379,-0.592 0.403,-0.577C0.427,-0.562 0.439,-0.534 0.439,-0.495C0.439,-0.459 0.424,-0.433 0.395,-0.416C0.366,-0.399 0.327,-0.391 0.279,-0.39L0.186,-0.39L0.186,-0.599L0.296,-0.599ZM0.331,-0.312C0.376,-0.312 0.412,-0.302 0.437,-0.282C0.462,-0.262 0.475,-0.232 0.475,-0.192C0.475,-0.153 0.461,-0.125 0.433,-0.107C0.405,-0.088 0.368,-0.079 0.321,-0.079L0.186,-0.079L0.186,-0.312L0.331,-0.312Z" style="fill:rgb(144,144,144);fill-rule:nonzero;"/>
            </g>
            <g transform="matrix(6.996,0,0,6.996,391.917,363.222)">
                <rect x="0.09" y="-0.68" width="0.096" height="0.68" style="fill:rgb(144,144,144);fill-rule:nonzero;"/>
            </g>
            <g transform="matrix(6.996,0,0,6.996,393.848,363.222)">
                <path d="M0.493,-0.075L0.186,-0.075L0.186,-0.68L0.09,-0.68L0.09,0L0.505,0L0.493,-0.075Z" style="fill:rgb(144,144,144);fill-rule:nonzero;"/>
            </g>
            <g transform="matrix(6.996,0,0,6.996,397.451,363.222)">
                <rect x="0.09" y="-0.68" width="0.096" height="0.68" style="fill:rgb(144,144,144);fill-rule:nonzero;"/>
            </g>
            <g transform="matrix(6.996,0,0,6.996,399.382,363.222)">
                <path d="M0.522,0L0.509,-0.075L0.186,-0.075L0.186,-0.309L0.43,-0.309L0.417,-0.383L0.186,-0.383L0.186,-0.606L0.486,-0.606L0.473,-0.68L0.09,-0.68L0.09,0L0.522,0Z" style="fill:rgb(144,144,144);fill-rule:nonzero;"/>
            </g>
        </g>
    </g>
</svg>
